<svg width="693" height="12" viewBox="0 0 693 12" fill="none" xmlns="http://www.w3.org/2000/svg">
<path d="M67.0974 -20.2183L68.8752 -20.3713L65.316 -20.6764L66.9709 -20.8399C68.6618 -20.8144 70.8985 -20.5032 72.0657 -20.6355C72.1875 -20.7777 70.339 -20.8499 69.8503 -20.9714C69.4151 -21.0951 69.0566 -21.2169 68.7787 -21.3355C69.6996 -21.3213 70.7164 -21.2793 71.7687 -21.2119C73.1867 -21.1061 74.5704 -21.045 75.7673 -21.0352C78.221 -20.9775 80.5839 -20.9675 83.2483 -20.925L82.3047 -21.2847L85.7508 -21.1552C86.119 -21.1237 86.5456 -21.1601 86.9085 -21.1224C89.9292 -20.8037 91.163 -20.9369 92.5704 -21.042C92.8579 -21.0702 93.2066 -21.0895 93.6074 -21.0991C97.5869 -20.9771 101.23 -20.5387 104.837 -20.2893C105.518 -20.229 106.174 -20.1546 106.758 -20.0715C108.025 -19.908 109.428 -19.7694 110.837 -19.6683C112.246 -19.5672 113.618 -19.5069 114.826 -19.4928C117.497 -19.4585 120.532 -19.3195 123.636 -19.0894C124.561 -19.0149 125.482 -18.9615 126.342 -18.9324C127.201 -18.9032 127.981 -18.8991 128.63 -18.9203L130.74 -18.6929C131.628 -18.7607 132.763 -18.7888 134.076 -18.7754C135.39 -18.7621 136.854 -18.7077 138.381 -18.6155C140.008 -18.5158 141.657 -18.4409 143.345 -18.336C146.832 -18.1318 150.215 -17.9893 153.391 -17.913C158.128 -17.7526 162.753 -17.615 167.536 -17.4308C170.525 -17.3323 173.433 -17.2604 176.244 -17.2154C179.613 -17.146 183.271 -16.9876 187.041 -16.7479V-16.7479C186.893 -16.5747 185.245 -16.6497 184.143 -16.6711C180.588 -16.7501 176.942 -16.8768 173.28 -16.9849C171.631 -17.0302 170.029 -17.061 168.484 -17.0773C165.899 -17.1209 163.167 -17.2059 160.336 -17.331C155.87 -17.4876 151.554 -17.5933 147.432 -17.6471C147.11 -17.6447 146.816 -17.6365 146.555 -17.6227C146.502 -17.6083 146.495 -17.5894 146.533 -17.5677C146.571 -17.546 146.653 -17.5222 146.772 -17.4987C146.89 -17.4752 147.041 -17.4528 147.211 -17.4335C147.38 -17.4142 147.561 -17.3987 147.738 -17.3886C149.395 -17.2465 151.174 -17.094 152.721 -17.0543C152.781 -17.0521 152.845 -17.0482 152.909 -17.0427C152.973 -17.0373 153.034 -17.0304 153.09 -17.0228C156.588 -16.7229 159.422 -16.7256 162.122 -16.6469C166.61 -16.4736 170.928 -16.3615 175.009 -16.3122C175.626 -16.303 176.295 -16.2793 176.991 -16.2419C181.286 -16.0697 185.287 -16.0011 188.806 -16.0391C190.256 -16.0408 191.6 -16.0717 193.163 -16.0506C194.125 -16.0405 194.958 -16.0605 195.611 -16.1095C196.264 -16.1584 196.725 -16.2353 196.964 -16.3355C197.633 -16.2716 198.31 -16.2135 198.989 -16.1619C199.395 -16.1322 199.781 -16.1204 200.069 -16.1289C200.357 -16.1374 200.527 -16.1657 200.544 -16.2079C200.644 -16.3254 199.719 -16.3981 198.915 -16.4603C199.391 -16.4791 199.928 -16.4866 200.515 -16.4825C203.822 -16.4632 207.379 -16.3812 211.109 -16.2382C214.011 -16.089 216.299 -16.1452 219.359 -15.9493C219.727 -15.9177 220.02 -15.9524 220.354 -15.957C221.219 -15.9938 222.305 -15.9896 223.517 -15.9446C224.73 -15.8997 226.033 -15.8154 227.313 -15.699C228.842 -15.9463 232.292 -15.5908 234.807 -15.5279C235.603 -15.3801 234.712 -15.4166 234.68 -15.3795C234.649 -15.3424 234.68 -15.3795 234.373 -15.4058C231.899 -15.247 228.472 -15.2529 224.573 -15.4227C223.856 -15.4323 223.173 -15.4331 222.533 -15.425C221.563 -15.4144 220.464 -15.4323 219.285 -15.4777C217.998 -15.517 216.821 -15.5235 215.81 -15.4968C215.224 -15.5057 214.732 -15.4921 214.38 -15.4573C214.028 -15.4225 213.827 -15.3676 213.795 -15.2977C214.195 -15.2379 214.637 -15.1821 215.103 -15.1325C217.528 -14.9286 219.929 -14.8246 221.835 -14.8409C225.153 -14.8685 229.127 -14.7403 232.663 -14.716C235.055 -14.6927 237.606 -14.6276 240.27 -14.522C240.27 -14.522 240.211 -14.454 240.206 -14.4478C240.525 -14.4135 240.858 -14.3849 241.188 -14.3636C241.188 -14.3636 241.188 -14.3636 241.214 -14.3946C241.064 -14.4267 240.862 -14.4578 240.633 -14.4843L239.835 -14.5526C240.368 -14.56 240.861 -14.5974 241.424 -14.5624C242.609 -14.4955 243.737 -14.4585 244.74 -14.4535C245.743 -14.4485 246.601 -14.4756 247.262 -14.5334C248.438 -14.6028 249.912 -14.6211 251.589 -14.5873C252.872 -14.5786 254.106 -14.5815 255.285 -14.5957C255.285 -14.5957 255.349 -14.6699 255.904 -14.7021C255.364 -14.7589 254.803 -14.807 254.247 -14.8441C251.835 -14.9512 249.419 -15.0522 247.053 -15.1355C246.183 -15.1531 245.369 -15.1561 244.623 -15.1446C242.553 -15.1478 240.217 -15.2172 237.75 -15.3487C237.75 -15.3487 237.259 -15.3908 237.014 -15.4118C237.674 -15.5677 240.072 -15.3687 241.013 -15.4673C241.597 -15.4571 242.627 -15.4285 242.587 -15.4585C242.5 -15.499 242.485 -15.5357 242.541 -15.566C242.597 -15.5963 242.725 -15.6194 242.913 -15.6337C243.102 -15.648 243.347 -15.6532 243.631 -15.6487C243.916 -15.6443 244.233 -15.6304 244.559 -15.6081C247.274 -15.4741 249.821 -15.4116 252.043 -15.4246C252.889 -15.4119 253.841 -15.3701 254.681 -15.3512C255.196 -15.3354 255.664 -15.3336 256.06 -15.3459C258.065 -15.4491 260.791 -15.4204 263.828 -15.2641C265.294 -15.2027 266.658 -15.1781 267.85 -15.1916C268.701 -15.185 269.078 -15.0864 269.691 -15.0338L272.281 -14.9047L268.994 -14.8347C269.745 -14.5579 270.321 -14.462 271.479 -14.4291C273.168 -14.3804 274.81 -14.346 276.397 -14.3262C277.571 -14.3119 278.53 -14.3558 280.136 -14.2314C280.42 -14.2108 280.691 -14.2016 280.905 -14.2054C282.751 -14.2699 284.988 -14.2592 287.465 -14.1741C288.715 -14.3259 290.919 -14.1303 292.954 -13.9691C293.583 -14.0878 292.396 -14.163 291.681 -14.2509C293.366 -14.2192 295.062 -14.2 296.804 -14.1569C297.326 -14.1563 297.925 -14.1363 298.556 -14.0984C299.186 -14.0605 299.83 -14.0057 300.437 -13.9384C300.735 -13.8962 301.091 -13.8626 301.431 -13.8446C301.771 -13.8265 302.07 -13.8254 302.265 -13.8415C303.158 -13.8844 304.611 -13.8129 305.342 -13.8964C305.603 -13.9143 305.982 -13.9119 306.409 -13.8899C306.837 -13.8678 307.286 -13.8274 307.676 -13.7759V-13.7759C307.26 -13.7674 306.891 -13.75 306.578 -13.7241C305.453 -13.6412 305.899 -13.4702 307.389 -13.2098C309.613 -13.1917 311.888 -13.156 313.944 -13.1723C315.087 -13.1968 316.499 -13.1643 318.019 -13.0785C319.54 -12.9927 321.11 -12.857 322.552 -12.6867C323.075 -12.6216 323.666 -12.5733 324.209 -12.5514C324.751 -12.5295 325.206 -12.5356 325.481 -12.5684C325.649 -12.6085 325.695 -12.6615 325.613 -12.723L324.141 -12.8492C324.141 -12.8492 324.188 -12.9049 324.199 -12.9173L326.29 -12.8974C327.396 -12.8822 328.554 -12.8493 329.599 -12.8394C331.131 -12.8493 332.888 -12.8071 334.763 -12.7154C336.493 -12.624 338.191 -12.5495 339.842 -12.4925C341.44 -12.4352 342.575 -12.5304 344.087 -12.5269C345.23 -12.5242 346.493 -12.4922 347.826 -12.4321C350.13 -12.3263 352.233 -12.2966 353.944 -12.3458C356.019 -11.9223 357.006 -11.8443 358.854 -11.925L359.726 -11.9431L359.979 -11.855L360.646 -11.8642C361.897 -11.8633 363.148 -11.8623 364.454 -11.8498C366.279 -11.7876 368.259 -11.6613 370.201 -11.4834C370.569 -11.4518 371.079 -11.355 371.41 -11.2801C371.741 -11.2053 372.473 -10.9832 373.007 -10.8379C372.467 -10.7448 371.864 -10.657 371.441 -10.5473C371.4 -10.5281 371.408 -10.5044 371.465 -10.4781C371.522 -10.4518 371.626 -10.4237 371.769 -10.396C371.912 -10.3682 372.089 -10.3417 372.288 -10.3184C372.486 -10.2952 372.699 -10.2759 372.909 -10.2621C373.321 -10.233 373.726 -10.2117 374.107 -10.1992C375.983 -10.1606 377.776 -10.1446 379.468 -10.1513C380.08 -10.1858 380.928 -10.178 381.877 -10.1291C382.825 -10.0803 383.82 -9.99321 384.704 -9.88172C386.915 -9.91016 389.498 -9.85632 392.276 -9.72391C395.188 -9.73983 398.736 -9.57514 401.445 -9.66158C401.392 -9.59974 401.691 -9.48777 402.094 -9.42003C402.731 -9.31679 403.449 -9.21931 404.218 -9.13172L410.015 -8.90042C410.243 -8.82012 410.526 -8.73811 410.859 -8.65546C411.088 -8.59064 411.48 -8.52487 411.952 -8.47208C412.423 -8.4193 412.936 -8.38364 413.383 -8.37268C414.536 -8.33365 415.49 -8.37134 416.88 -8.22561C414.791 -8.13565 411.944 -8.19147 408.847 -8.38313C405.942 -8.53661 403.155 -8.63205 400.592 -8.6659C399.746 -8.67862 398.634 -8.68766 398.381 -8.62304C397.828 -8.43815 396.292 -8.49018 394.499 -8.55088C393.089 -8.60958 391.808 -8.6232 390.761 -8.59063C389.714 -8.55805 388.931 -8.48021 388.476 -8.36351C388.375 -8.246 388.68 -8.14023 389.923 -8.05358L395.091 -7.70355C395.84 -7.72871 396.549 -7.76098 397.216 -7.80023C398.342 -7.84898 399.742 -7.84704 401.308 -7.79456C402.874 -7.74207 404.563 -7.64046 406.245 -7.49762C407.104 -7.42398 407.963 -7.35034 408.573 -7.37103C409.108 -7.39713 409.599 -7.43048 410.042 -7.47084C410.128 -7.50084 410.158 -7.53634 410.132 -7.57597C410.462 -7.55308 410.793 -7.5247 411.114 -7.4918C413.698 -7.1243 415.655 -7.10255 417.42 -7.16368C417.897 -7.18252 418.257 -7.21806 418.74 -7.24308C419.222 -7.26811 419.387 -7.30706 419.833 -7.28879C423.386 -7.13027 424.344 -7.47966 427.325 -7.42322C427.468 -7.43538 427.555 -7.45536 427.577 -7.4813C427.599 -7.50724 427.557 -7.5383 427.453 -7.57164C427.237 -7.60345 426.99 -7.63168 426.732 -7.65374C426.475 -7.6758 426.216 -7.69098 425.98 -7.69788C424.601 -7.7638 423.392 -7.7665 422.561 -7.7055C421.968 -7.68412 421.34 -7.66928 420.678 -7.66107L417.608 -8.2296C420.506 -8.14075 423.24 -8.10269 425.745 -8.1163C426.289 -8.13606 427.225 -8.07571 427.999 -8.05588L433.685 -7.92693C434.853 -7.90646 435.834 -7.97505 437.494 -7.75974C437.494 -7.75974 438.575 -7.71361 438.857 -7.73586C439.14 -7.75811 440.384 -7.90369 441.125 -7.99951C442.011 -7.95679 443.243 -7.85777 443.787 -7.87753C444.734 -7.93153 445.549 -8.00636 446.218 -8.10067L449.672 -7.90413C449.69 -7.77237 449.586 -7.65012 449.36 -7.53925C449.111 -7.43277 449.142 -7.3003 449.45 -7.1527C449.759 -7.0051 450.337 -6.84655 451.136 -6.69L454.65 -5.87096C455.211 -5.81154 455.806 -5.7685 456.354 -5.74767C456.902 -5.72684 457.376 -5.72923 457.712 -5.75454C459.155 -5.82342 460.776 -5.87034 462.218 -5.93922C464.12 -5.77615 463.674 -5.56218 465.072 -5.34936L469.552 -4.96537C470.277 -4.65765 471.012 -4.36229 468.975 -4.29128C468.569 -4.27955 468.864 -4.1614 468.499 -4.11967C470.132 -3.87344 471.898 -3.7818 473.539 -3.62123C474.194 -3.51312 474.744 -3.40069 475.165 -3.28935C475.634 -3.124 476.559 -2.94885 477.739 -2.80171C478.92 -2.65458 480.261 -2.54726 481.474 -2.50294C483.515 -2.3907 485.611 -2.23572 487.669 -2.04495C488.372 -1.97879 489.092 -1.92767 489.78 -1.89504C490.468 -1.86241 491.108 -1.84903 491.657 -1.8558C493.618 -1.85375 495.266 -1.91826 496.496 -2.0451C497.715 -2.15028 499.375 -2.1859 501.327 -2.14875C504.702 -1.85943 505.435 -1.4846 507.507 -1.13444L504.027 -1.14731C503.921 -1.02362 504.178 -0.862188 502.748 -0.885147C501.319 -0.908106 502.064 -0.777881 502.547 -0.650142C502.721 -0.586867 503.05 -0.51966 503.479 -0.459904C503.908 -0.400148 504.41 -0.351517 504.901 -0.322235L507.894 -0.125398C508.957 -0.0515685 509.979 -0.0120553 510.85 -0.0111906C511.721 -0.0103259 512.406 -0.0481438 512.831 -0.120497C513.321 -0.187979 514.006 -0.228665 514.843 -0.240057C515.906 -0.285805 516.773 -0.363847 517.413 -0.471233L521.63 -0.24248C521.789 -0.357183 522.351 -0.431279 523.221 -0.452249C524.092 -0.473219 525.216 -0.439781 526.406 -0.357573L529.247 -0.213622C532.405 -0.0557459 533.087 -0.0835399 533.952 -0.401074L530.089 -1.04418C530.611 -1.19196 531.117 -1.3212 531.623 -1.45043C530.653 -1.65806 529.371 -1.85955 527.907 -2.03445C526.538 -2.21953 525.132 -2.39991 523.693 -2.5749C522.135 -2.75495 520.494 -2.91553 518.562 -3.12097C518.22 -3.18345 517.721 -3.29264 517.088 -3.39998C516.455 -3.50453 515.796 -3.60757 515.113 -3.70869C515.219 -3.83238 515.314 -3.9437 515.047 -4.09276C516.226 -4.02984 517.45 -3.93156 518.608 -3.8068C519.766 -3.68203 520.822 -3.5347 521.68 -3.37808C521.825 -3.35041 522.001 -3.32386 522.197 -3.30022C522.392 -3.27657 522.603 -3.25639 522.815 -3.24103C524.887 -3.1231 525.902 -2.92329 526.946 -2.68111C527.643 -2.55502 528.534 -2.43922 529.495 -2.34979C531.336 -2.19198 533.145 -1.99707 534.909 -1.82597C535.449 -1.76962 536.009 -1.72161 536.566 -1.68395C538.4 -1.56326 540.252 -1.40452 542.027 -1.21578C542.605 -1.16604 543.162 -1.10313 543.651 -1.03231C544.141 -0.961486 544.548 -0.884819 544.841 -0.808693C544.421 -0.735679 544.204 -0.639121 544.202 -0.524851C544.139 -0.450639 545.441 -0.279245 546.063 -0.15954C546.685 -0.039834 545.493 -0.108864 545.093 -0.10332C543.447 -0.104953 543.149 -0.0641542 544.177 0.196583C544.52 0.278841 544.752 0.359591 544.858 0.433803C544.965 0.508015 544.944 0.574119 544.796 0.628006C544.6 0.856827 543.919 1.03738 543.467 1.25753C544.252 1.41776 545.548 1.59531 545.718 1.7824C545.791 1.82441 545.939 1.86991 546.15 1.91559C546.362 1.96127 546.632 2.006 546.941 2.04655C547.752 2.13612 548.493 2.24002 549.107 2.3502C549.721 2.46037 550.191 2.57388 550.481 2.68192C550.577 2.72626 550.8 2.77501 551.105 2.81838C551.41 2.86176 551.774 2.89656 552.125 2.91578C552.544 2.93924 552.916 2.94215 553.165 2.92392C553.413 2.90568 553.519 2.86769 553.46 2.81781C553.455 2.7256 553.384 2.62853 553.248 2.52745C553.306 2.45942 553.364 2.39139 553.07 2.27325C554.32 2.3324 555.639 2.4343 556.883 2.56789C558.127 2.70147 559.25 2.86162 560.128 3.03092C561.097 3.20693 561.995 3.39005 563.071 3.59513C562.891 3.8054 562.89 3.80539 565.176 4.2137L576.997 4.56314L579.455 4.84684C581.744 5.0962 582.277 5.08881 583.674 4.99612L584.61 4.90369C586.635 5.07728 588.967 5.27718 590.173 5.02212C590.609 5.20552 590.884 5.26893 590.796 5.29459C590.242 5.54843 589.241 5.75635 587.832 5.91012C587.472 5.94566 587.224 6.00408 586.803 6.03437C585.46 6.2198 585.193 6.53174 586.057 6.90636C586.482 7.07275 587.089 7.24553 587.857 7.41916C586.809 7.63042 585.403 7.79788 583.676 7.9171C582.208 8.00749 581.009 8.13929 580.113 8.30871C579.312 8.48098 578.089 8.60177 576.515 8.66414C575.715 8.68882 575.139 8.7516 574.844 8.8462C574.796 9.11283 575.056 9.40268 575.62 9.70929C575.732 9.80176 576.023 9.90404 576.471 10.0081C576.919 10.1121 577.512 10.2151 578.202 10.309C578.202 10.309 578.539 10.3777 578.702 10.4182C578.886 10.7445 578.445 11.0236 577.408 11.2367C577.243 11.299 576.89 11.3407 576.388 11.3573C575.887 11.374 575.255 11.3649 574.561 11.3312C573.096 11.272 571.733 11.2481 570.32 11.2066C568.795 11.1546 567.461 11.16 566.457 11.2223C565.453 11.2846 564.817 11.4015 564.615 11.5607C564.608 11.6065 564.571 11.6499 564.504 11.6906C564.464 11.7115 564.445 11.7343 564.446 11.7586L567.772 12.3358L564.143 12.4961C563.963 12.7064 565.743 12.8589 566.651 13.0297L566.12 13.1103C565.427 13.1505 564.467 13.0416 563.602 12.9741L562.743 12.9005L562.658 12.9994C562.152 13.1287 560.199 12.948 559.464 13.0376C558.728 13.1273 559.284 13.2479 560.429 13.3726C561.225 13.4645 562.077 13.5408 562.92 13.5958C563.763 13.6508 564.575 13.683 565.295 13.6901C565.723 13.6854 566.076 13.666 566.332 13.6329C567.827 13.498 569.484 13.3872 571.292 13.3014C572.676 13.221 574.423 13.203 576.41 13.2488C576.99 13.2494 577.696 13.283 578.403 13.3436C579.111 13.4042 579.773 13.488 580.276 13.5802V13.5802L581.305 13.6087C581.305 13.6087 581.882 13.7046 581.805 13.7179C581.457 13.9731 581.964 14.2982 583.25 14.645V14.645L582.184 14.6598C580.647 14.6078 581.651 14.82 581.438 14.9146C580.348 14.8808 578.92 14.7784 578.425 14.8953L577.652 14.8754L577.958 14.9017L578.318 14.8662L579.789 15.0719C579.112 15.0935 578.624 15.1247 578.024 15.133C577.693 15.143 577.433 15.165 577.257 15.1979C577.082 15.2308 576.996 15.2738 577.004 15.3244C577.018 15.4023 576.849 15.4652 576.514 15.5073C576.178 15.5494 575.686 15.5692 575.085 15.5649C574.368 15.5565 573.971 15.6353 573.555 15.6594L575.468 16.1951C575.468 16.1951 574.547 16.1162 575.057 16.213L575.11 16.1512L576.239 16.2944C577.056 16.4175 577.618 16.4525 578.077 16.3789C578.535 16.3053 578.445 16.4105 578.666 16.383C578.597 16.4634 578.094 16.5131 577.662 16.5558C577.16 16.587 576.59 16.6072 575.963 16.616C577.158 16.9905 577.214 17.002 575.572 17.0736C573.929 17.1453 574.525 17.2959 573.141 17.2968C571.757 17.2976 573.375 17.5624 574.311 17.6228C575.004 17.6635 575.714 17.7218 576.392 17.7937C577.07 17.8655 577.699 17.9492 578.236 18.0389L578.003 18.311C577.591 18.2824 577.177 18.2469 576.776 18.2058C575.407 18.0353 574.16 17.8754 572.979 17.9468L573.583 18.1645L569.39 17.9843C569.524 18.143 570.19 18.331 571.247 18.5086V18.5086C571.107 18.596 571.027 18.689 571.009 18.7868C570.95 18.8549 570.531 18.8057 570.265 18.8094C569.311 18.8075 568.534 18.8433 568.003 18.9135C567.472 18.9837 567.203 19.0863 567.219 19.2121C567.129 19.3173 568.635 19.5592 569.552 19.5648C571.849 19.6183 574.343 19.7351 576.898 19.9091C578.445 19.9487 578.617 19.6713 581.189 19.8985C581.261 20.0287 580.953 20.1289 580.311 20.1841C579.67 20.2393 578.73 20.2464 577.633 20.2044C578.302 20.5007 581.753 20.6239 581.955 20.9267C581.095 20.8934 580.171 20.8306 579.275 20.7444C578.378 20.6583 577.54 20.5517 576.843 20.4354C576.692 20.407 576.504 20.3801 576.296 20.3573C576.088 20.3344 575.867 20.3163 575.654 20.3047C575.441 20.293 575.242 20.2881 575.075 20.2905C574.909 20.2929 574.781 20.3025 574.703 20.3183C575.197 20.4337 575.742 20.5667 576.359 20.6926C576.976 20.8185 577.128 20.8714 577.563 20.902C580.815 21.1808 582.413 21.6231 585.239 21.9384C585.975 22.0015 586.094 22.171 585.459 22.1431C584.855 22.1156 584.311 22.1105 583.889 22.1282C583.466 22.1459 583.182 22.1858 583.067 22.2435C582.612 22.3062 582.041 22.3531 581.367 22.3831C584.29 22.855 587.752 23.2844 591.43 23.6308C592.127 23.6988 592.85 23.7445 593.493 23.7611C595.519 23.79 597.674 23.8544 599.915 23.9532C600.709 23.9827 601.44 23.9912 602.067 23.9783C604.129 23.9559 605.791 24.0917 607.345 24.4307L609.914 24.9695C609.845 25.0499 609.443 25.1349 609.142 25.2552L611.128 25.5516L625.841 25.1398L628.914 25.7816L633.173 25.8082C633.503 25.8301 633.835 25.8586 634.155 25.8923C635.046 26.0816 635.749 26.2613 636.713 26.4435C637.677 26.6257 639.351 26.6697 640.55 26.8853C641.749 27.1009 642.917 27.1214 644.379 27.26C644.54 27.4161 644.423 27.5529 644.035 27.662C643.924 27.7918 643.204 27.8629 643.098 27.9866C643.133 28.1136 642.879 28.2174 642.357 28.2887C641.836 28.3599 641.065 28.3964 640.114 28.3946C637.49 28.6271 634.303 28.7742 630.65 28.8314C630.329 28.8347 630.064 28.8492 629.873 28.874C629.682 28.8987 629.568 28.9331 629.539 28.9751C629.564 29.0983 629.337 29.2012 628.874 29.2763C628.41 29.3515 627.723 29.3969 626.861 29.4094C626.631 29.4111 626.46 29.4242 626.368 29.4468C626.042 29.4577 625.808 29.484 625.688 29.5232C625.568 29.5624 625.566 29.6131 625.682 29.6705C625.799 29.7278 626.03 29.7899 626.353 29.8507C626.676 29.9115 627.08 29.9689 627.526 30.0174C628.175 30.0946 628.837 30.1691 629.509 30.2405C629.477 30.2776 628.821 30.2745 628.923 30.3097C629.2 30.4216 629.277 30.5239 629.147 30.6084C629.018 30.6929 628.685 30.7574 628.176 30.7967L631.862 31.7234C634.031 31.875 636.174 32.1106 637.882 32.3855C637.891 32.4267 637.801 32.4598 637.621 32.4817C637.44 32.5035 637.176 32.5131 636.854 32.5097C635.992 32.5155 635.182 32.539 634.254 32.5458C633.687 32.5526 633.219 32.5785 632.876 32.6221C632.533 32.6657 632.323 32.726 632.258 32.7995L634.391 33.1549C633.738 33.2251 633.25 33.2563 632.818 33.299C633.084 33.405 633.531 33.517 634.122 33.6265C634.714 33.7359 635.435 33.8397 636.23 33.93C636.443 33.9493 636.658 33.9642 636.865 33.9739C637.072 33.9837 637.265 33.988 637.433 33.9866C639.025 33.8974 640.941 34.1213 642.801 34.3339C644.661 34.5464 645.672 34.673 647.047 34.8372L649.634 34.893C650.299 34.971 650.896 35.0601 651.377 35.1532C651.858 35.2463 652.209 35.3407 652.402 35.4291C652.286 35.5651 651.048 35.4723 650.32 35.4763C648.602 35.5378 646.32 35.4875 643.855 35.3337C643.241 35.2811 642.625 35.3079 642.036 35.3039C640.766 35.3032 639.547 35.314 638.386 35.3362C637.622 35.3613 636.911 35.3957 636.256 35.439C636.107 35.6122 638.922 35.7871 637.351 35.8516C637.904 35.899 638.117 35.9571 638.395 35.941C640.211 36.0803 641.991 36.1616 643.529 36.1754C646.479 36.1926 649.847 36.3198 653.356 36.5464C657.143 36.7833 660.758 36.9112 663.905 36.9196C665.106 36.9343 666.454 36.9909 667.848 37.0849C669.496 37.2112 671.126 37.2989 672.633 37.3424C673.131 37.3502 673.689 37.3756 674.26 37.4165C674.832 37.4574 675.401 37.5127 675.923 37.5779V37.5779C675.886 37.6212 675.403 37.6463 675.515 37.6691C677.126 38.0196 677.813 38.3706 680.263 38.7399C681.92 38.882 683.823 39.045 684.867 38.9022C685.912 38.7594 685.505 38.6184 683.308 38.1844C683.77 38.1851 684.329 38.2118 684.89 38.2599C685.451 38.3079 685.977 38.3743 686.376 38.4474L688.269 38.7756L689.978 39.088C689.856 39.2303 689.76 39.3416 689.66 39.4591C689.491 39.583 689.725 39.7401 690.329 39.9081C690.692 40.0004 691.011 40.092 691.28 40.1822C692.376 40.5431 692.731 40.8746 692.305 41.1396C691.468 41.5175 690.271 41.8592 688.73 42.1608C687.097 42.4523 686.24 42.837 684.909 43.161C684.227 43.3074 683.39 43.4356 682.407 43.544C680.55 43.7897 678.509 44.0197 676.646 44.2716C674.784 44.5235 672.662 44.6935 670.58 44.8934C667.47 45.1218 664.097 45.3093 660.482 45.4551C658.254 45.596 655.964 45.7316 653.909 45.9006C651.48 46.0896 648.61 46.2095 645.37 46.2574C642.513 46.329 639.971 46.4585 637.793 46.6435C637.565 46.6636 637.386 46.6908 637.263 46.7242C636.901 46.9389 635.809 47.0785 634.156 47.1217C634.268 47.1876 634.408 47.255 634.576 47.3236C634.82 47.406 634.88 47.4807 634.749 47.5381C634.618 47.5955 634.301 47.6329 633.839 47.6455C632.517 47.6814 631.425 47.7585 630.614 47.8735C630.313 47.901 630.131 47.9447 630.083 48.0007C630.035 48.0567 630.123 48.1234 630.338 48.1951C630.531 48.2685 630.555 48.3339 630.407 48.3828C630.26 48.4317 629.947 48.4619 629.511 48.4694C628.395 48.5206 627.197 48.5576 625.925 48.5802C623.218 48.6313 620.053 48.5858 616.62 48.4464C616.251 48.4149 615.892 48.4504 615.462 48.4136C613.028 48.2772 610.78 48.2298 608.992 48.2772C606.885 48.2758 604.677 48.2392 602.453 48.2212C599.235 48.1671 596.276 48.1794 593.66 48.2575C590.63 48.1039 588.97 48.2736 586.428 48.2416C584.084 48.2286 581.868 48.245 579.799 48.2908C576.461 48.3432 573.133 48.3832 569.845 48.4532C566.752 48.4652 563.913 48.5312 561.377 48.65C560.406 48.7063 558.611 48.5723 557.966 48.7095C557.322 48.8468 555.97 48.8106 554.887 48.8439L551.466 48.9158C550.879 48.936 550.231 48.945 549.533 48.9426C546.335 48.9075 544.152 49.0722 541.19 49.0705L540.883 49.0441C535.659 49.2612 529.651 49.3363 523.038 49.2671C519.188 49.3021 514.96 49.2385 510.87 49.2463C509.913 49.3635 507.576 49.1698 506.369 49.2721C505.161 49.3744 503.144 49.2679 501.566 49.2653C499.987 49.2628 498.448 49.2902 496.758 49.2648C495.29 49.2447 494.059 49.2807 493.177 49.3694C491.154 49.5081 488.67 49.5715 485.836 49.5567C482.09 49.5475 478.557 49.5965 474.735 49.5212C474.809 49.644 474.592 49.7446 474.106 49.8126C473.619 49.8805 472.881 49.9134 471.966 49.9079C467.891 49.8971 464.209 49.9665 460.078 49.9443L458.971 49.9291L446.61 49.8255C443.279 49.7922 440.071 49.7695 436.674 49.7372C435.385 49.6267 435.381 49.7856 434.495 49.7429C434.236 49.6609 433.939 49.6223 433.513 49.6587L433.434 49.7515L419.334 49.6781C413.821 49.6917 408.01 49.6375 401.951 49.5157C400.517 49.5048 399.182 49.5172 397.967 49.5526C396.837 49.5559 395.656 49.5478 394.431 49.5283C392.772 49.4814 391.153 49.4467 389.58 49.4245C385.449 49.4023 381.104 49.322 376.57 49.2321C372.036 49.1421 368.612 49.1407 364.58 49.0805C361.849 49.0389 359.129 48.985 356.296 48.9082C354.944 48.8719 353.266 48.7546 351.863 48.7007C350.46 48.6468 350.004 48.6409 349.828 48.6923C349.245 48.8348 347.7 48.7157 346.476 48.6837C344.089 48.6252 343.742 48.5689 343.03 48.1693L345.933 48.0863C346.643 48.0563 347.543 48.0619 348.547 48.1026C349.55 48.1432 350.624 48.2176 351.663 48.3185C352.073 48.3613 352.499 48.3965 352.918 48.4221C353.337 48.4478 353.74 48.4634 354.104 48.468C357.051 48.4882 359.952 48.4847 362.782 48.4883L363.192 48.4703L363.161 48.1224C362.78 48.083 362.386 48.0493 361.995 48.0225L347.736 47.5969C344.463 47.4956 341.054 47.3228 337.843 47.2268C334.631 47.1308 332.9 47.0753 330.406 46.9877C329.353 46.9429 328.277 46.8884 327.187 46.8245C327.244 46.7919 327.274 46.7567 327.277 46.7194C327.324 46.6638 327.388 46.5895 326.918 46.5227C326.402 46.4304 325.72 46.3483 325.007 46.2925C324.34 46.253 323.695 46.2268 323.097 46.2151C320.208 46.1455 316.883 45.9153 313.832 45.5736L312.817 45.7588C308.291 45.5832 303.697 45.4085 298.971 45.2357C298.023 45.1934 297.024 45.1237 296.049 45.0318C295.006 44.9424 294.032 44.7726 292.933 44.6717C291.85 44.595 290.777 44.532 289.734 44.4838C290.007 44.4363 290.37 44.4004 290.814 44.3772C291.253 44.3731 291.569 44.3454 291.716 44.2983C291.863 44.2513 291.833 44.1872 291.631 44.1153C291.275 43.9919 291.109 43.8781 291.837 43.8741C292.507 43.8565 292.981 43.8047 293.201 43.7248C293.421 43.6449 293.379 43.5402 293.08 43.423C292.946 43.3551 292.848 43.2891 292.788 43.2254V43.2254L292.481 43.1991C291.442 42.9507 289.431 42.8381 287.965 42.6262C287.28 42.5611 286.574 42.5193 285.959 42.5073C284.367 42.4439 282.82 42.4042 281.171 42.3293C280.384 42.2944 279.558 42.2394 278.741 42.1674C277.575 42.0675 277.452 42.0569 276.733 41.743C277.773 41.7629 278.589 41.729 279.043 41.647C279.497 41.565 279.562 41.4399 279.226 41.2929C278.318 40.9694 277.358 40.6283 273.445 40.3526C274.707 40.3594 275.92 40.3548 277.079 40.3388C277.417 40.3366 277.667 40.3173 277.795 40.2835C277.924 40.2496 277.925 40.2029 277.799 40.1494C277.673 40.096 277.425 40.0385 277.089 39.9846C276.753 39.9307 276.345 39.8829 275.919 39.8477C273.843 39.6428 271.689 39.4949 269.697 39.4206C268.022 39.3766 266.516 39.367 264.563 39.339L262.231 39.1392C262.263 39.102 261.916 39.0458 261.999 39.0263C262.552 38.8414 263.167 38.6617 263.798 38.4636C262.717 38.3366 261.775 38.1884 261.078 38.0359C260.381 37.8835 259.959 37.7329 259.859 37.6015C259.796 37.5614 259.805 37.5258 259.886 37.4972C259.967 37.4686 260.119 37.4478 260.33 37.4361C260.933 37.4194 261.393 37.3779 261.676 37.3146C261.958 37.2514 262.056 37.1681 261.96 37.0713L260.11 36.6936C254.673 36.3664 249.345 36.1123 244.225 35.9361L239.605 35.7924C239.034 35.6903 239.199 35.6513 239.722 35.6563C240.244 35.6613 241.719 35.7081 242.749 35.7366C243.639 35.7675 244.425 35.7664 245.03 35.7334C245.636 35.7004 246.04 35.6366 246.204 35.5481L244.591 35.1244C244.654 35.0502 244.744 34.945 245.584 34.9639C246.156 34.9633 246.572 34.9313 246.765 34.8732C246.959 34.8151 246.918 34.7342 246.649 34.6437C246.6 34.5802 246.649 34.5237 246.792 34.4767C248.032 34.49 249.267 34.5096 250.39 34.5062C250.913 34.5072 251.352 34.4901 251.677 34.4561C252.001 34.4221 252.204 34.3719 252.271 34.3091C252.302 34.2472 252.191 34.1746 251.948 34.0973C251.705 34.02 251.337 33.9401 250.874 33.864C249.095 33.7529 247.481 33.7291 246.385 33.7979C246.001 33.8584 245.371 33.8856 244.58 33.8758C243.789 33.8661 242.873 33.8198 241.953 33.7432C240.899 33.655 239.855 33.608 239.007 33.6108C238.16 33.6136 237.565 33.666 237.329 33.7584C236.254 33.7061 235.302 33.6643 234.36 33.6102C233.249 33.5429 232.204 33.513 231.338 33.5237C229.95 33.5204 228.449 33.4899 226.871 33.4329C222.323 33.282 217.77 33.1374 213.375 33.0394C212.212 33.0128 211.212 33.0266 210.059 32.9876C208.907 32.9486 208.009 32.9977 206.552 32.8529C206.275 32.8297 205.998 32.8134 205.742 32.8053C205.486 32.7972 205.258 32.7975 205.077 32.8061C202.571 32.8693 199.616 32.8417 196.386 32.725C191.974 32.6456 187.395 32.5318 182.978 32.4586C181.685 32.4501 180.466 32.4588 179.333 32.4847C178.47 32.4979 177.564 32.5022 176.621 32.4979C175.898 32.4957 175.202 32.4625 175.347 32.6011C175.492 32.7396 174.392 32.6388 173.763 32.6047C171.603 32.5082 169.393 32.3875 167.155 32.2441C164.949 32.0914 162.795 31.9903 160.823 31.9469C159.398 31.9178 157.937 31.9319 156.077 31.7194C156.135 31.6513 156.194 31.5833 156.58 31.5168C155.055 31.2976 153.325 31.1032 151.533 30.9495C149.74 30.7958 147.936 30.6874 146.27 30.6331L143.918 30.2257C143.347 30.1738 142.766 30.1336 142.211 30.1077C141.656 30.0818 141.138 30.0706 140.688 30.075C140.34 30.0755 139.913 30.0556 139.484 30.0189C139.056 29.9822 138.655 29.9311 138.356 29.8751C137.91 29.8029 137.37 29.7385 136.802 29.6898C136.234 29.6411 135.665 29.6104 135.165 29.6016C133.585 29.5387 131.89 29.4209 130.253 29.2602C129.821 29.1734 129.545 29.0862 129.459 29.0092C129.373 28.9322 129.48 28.8689 129.768 28.827C130.231 28.7523 130.482 28.6525 130.505 28.5335C130.527 28.4145 130.322 28.2788 129.9 28.1346C129.682 28.0466 129.6 27.9651 129.66 27.895C129.72 27.8248 129.921 27.7675 130.25 27.7264C131.47 27.5323 131.114 27.4089 129.003 27.0287C128.659 26.9655 128.248 26.9051 127.795 26.8514C127.342 26.7977 126.857 26.7519 126.371 26.7169C125.232 26.6438 124.111 26.5855 123.029 26.5432C122.415 26.4906 121.799 26.5175 121.098 26.4906C117.59 26.3559 117.056 26.2105 115.875 25.8969L115.015 25.6705C113.457 25.475 111.761 25.307 110.048 25.1785C108.336 25.0501 106.65 24.9645 105.112 24.9278C104.501 24.9181 103.795 24.8785 103.1 24.8151C100.843 24.6194 98.5646 24.4739 96.4177 24.3883C95.0803 24.3383 93.6309 24.2372 92.2435 24.0971C90.8562 23.957 89.5898 23.7838 88.5966 23.5984C87.7044 23.4315 86.5475 23.2766 85.2872 23.1554C83.8144 23.0292 83.659 22.903 84.4559 22.8187C85.2527 22.7343 86.5935 22.6301 87.785 22.5464C88.1997 22.5181 88.451 22.4661 88.5108 22.3962C88.5707 22.3263 88.4368 22.2413 88.1239 22.1506C87.9078 21.9999 87.8513 21.859 87.9559 21.7313C88.0144 21.6784 87.9577 21.6161 87.7896 21.5484C87.6216 21.4808 87.3461 21.4095 86.9818 21.3392C86.6174 21.269 86.1728 21.2015 85.6776 21.1413C85.1824 21.0811 84.6483 21.0295 84.1114 20.9902C81.8408 20.7955 79.6315 20.6062 77.3239 20.4548C76.3558 20.3852 75.3865 20.3021 74.4396 20.2076C72.4958 19.9795 70.4243 19.7839 68.3453 19.6321C67.3592 19.5634 66.3881 19.454 65.6422 19.3274C63.2983 18.9816 61.1318 18.6223 59.182 18.2558C58.7082 18.144 58.094 18.0328 57.3779 17.9292C56.6619 17.8255 55.8594 17.7317 55.021 17.6535C54.3459 17.5957 53.7853 17.4812 53.2595 17.403C52.8587 17.2332 52.7935 17.0804 53.0703 16.959C53.3471 16.8376 53.9568 16.7515 54.8419 16.7088C55.6789 16.6545 56.4598 16.5886 57.1794 16.5175C58.0522 16.4641 59.0961 16.4394 60.2725 16.4441C61.6621 16.4284 62.6774 16.3419 63.1857 16.196C59.3196 15.8646 55.6208 15.4147 52.2877 15.461L49.7017 15.1729C49.7864 15.074 49.8606 14.9874 49.9294 14.907C50.5099 14.767 50.668 14.5825 50.3902 14.3689C50.1729 14.2645 50.1757 14.1722 50.3982 14.1016C50.6207 14.0309 51.055 13.9842 51.6572 13.9664C55.2052 13.7461 59.3299 13.6217 62.6484 13.3618C63.6953 13.319 64.9276 13.3102 66.2936 13.3357C67.6109 13.3358 67.5328 13.1963 65.9849 13.0039C65.1172 12.9025 64.2337 12.8046 63.3377 12.7106C59.4439 12.6424 57.9263 13.0301 53.4665 12.8536L51.3188 12.2845C50.7608 12.2683 50.22 12.2574 49.6999 12.2519L42.2898 12.3669C41.6714 12.3692 41.1948 12.3999 40.9142 12.4557C40.6336 12.5114 40.5602 12.5899 40.7023 12.6822C40.771 12.7936 40.6853 12.8938 40.4481 12.979C40.296 13.0389 40.4136 13.123 40.775 13.2128C41.5896 13.4154 40.5896 13.4293 39.9632 13.4685C39.8018 13.471 39.6147 13.4678 39.4128 13.4593C39.2109 13.4508 38.9982 13.4371 38.787 13.419C38.5758 13.4009 38.3703 13.3788 38.1824 13.3539C37.9946 13.329 37.8281 13.3018 37.6927 13.2739C36.5448 13.0759 35.5354 12.8699 34.4034 12.6534C35.1516 12.4719 34.1816 12.1432 35.37 11.9861C35.5004 11.9533 35.5478 11.9117 35.5095 11.8638C35.4711 11.816 35.3477 11.763 35.1469 11.7081C34.6289 11.5664 34.3712 11.4316 34.3995 11.3175C34.4278 11.2034 34.7413 11.1139 35.3083 11.0581L35.3665 10.9901C33.805 10.7368 34.1744 10.5361 33.5356 10.2822L32.0437 10.1012C28.3343 9.66374 28.329 9.66992 25.1927 9.64007C24.5358 9.48418 25.3359 9.47311 25.9359 9.46479L30.9567 9.37074C34.2391 9.3069 37.623 9.27833 41.3031 9.28842C44.9833 9.29851 49.0708 9.21739 52.8653 9.1709C53.0567 9.16585 53.2016 9.15261 53.2878 9.13228C53.3739 9.11196 53.3989 9.08512 53.3606 9.05404C53.2036 9.0188 53.0001 8.98407 52.7649 8.95243C52.5298 8.92078 52.2691 8.89303 52.0021 8.8712C50.7747 8.766 49.521 8.69172 48.2164 8.59981L45.7859 8.43795L45.0169 8.25918C44.5176 8.15 44.1673 8.0204 43.5135 7.9378C42.9756 7.87549 42.3947 7.82577 41.8312 7.79381C41.2677 7.76185 40.7423 7.74884 40.3098 7.75612C39.1098 7.77275 38.0273 7.80609 36.8834 7.83417C35.7396 7.86225 35.1131 7.90148 34.1184 7.90916C32.0919 7.89056 30.1362 7.88912 28.2597 7.90484C26.6898 7.98233 25.2419 8.07997 23.9254 8.19714C23.099 8.23915 22.3285 8.2926 20.8906 8.20254C20.2034 8.12952 19.6059 8.03791 19.2041 7.94392C18.8023 7.84994 18.622 7.75966 18.6954 7.6891C18.7626 7.63394 18.9719 7.59247 19.3036 7.56862C19.6352 7.54478 20.0781 7.53934 20.5906 7.55282C22.0206 7.56258 23.3388 7.54637 24.5185 7.50449C26.1566 7.42162 28.1645 7.40416 30.4249 7.45316C31.1931 7.47918 31.6969 7.42942 32.3635 7.42018C33.0301 7.41094 33.5898 7.37262 34.3421 7.41719C36.6763 7.5376 37.7662 7.41861 39.1419 7.35065C39.606 7.31849 39.8872 7.25989 39.9544 7.18132C40.0217 7.10276 39.8725 7.00727 39.5232 6.90538C38.8496 6.70274 38.0325 6.497 37.0848 6.29143C36.5978 6.19007 35.979 6.09162 35.277 6.00381C34.5751 5.916 33.8089 5.84121 33.0388 5.7853C32.5628 5.66032 32.3 5.5403 32.2742 5.43609C32.2485 5.33188 32.4606 5.24678 32.8913 5.18849C33.9919 5.05712 34.9644 4.92142 37.4985 5.03906C38.6887 5.08711 39.805 5.10879 40.8028 5.10324C43.019 5.10756 45.5902 5.20231 48.2741 5.37855C48.9685 5.4238 49.6491 5.45756 50.2961 5.47885C54.9105 5.62877 59.3005 5.7329 63.7012 5.82466C66.0322 5.87179 68.3791 5.90037 70.817 5.97657C76.5328 6.14788 81.7144 6.17382 87.2219 6.2808C90.1062 6.33655 92.6755 6.3113 94.795 6.20637C95.2047 6.16698 95.5541 6.11918 95.8394 6.06356C94.3942 5.88679 92.8146 5.74071 91.2521 5.63932C89.6896 5.53793 88.1964 5.48463 86.9157 5.48451C86.2173 5.51852 85.3065 5.51374 84.2849 5.47071C83.2633 5.42769 82.1712 5.34811 81.1301 5.24084V5.24084L84.1035 5.23018C86.0769 5.23338 88.101 5.2542 90.0184 5.24596C93.0637 5.22818 95.8793 5.17081 99.0367 5.17592C101.585 5.17564 103.856 5.11534 105.777 4.99693C107.165 4.91036 108.758 4.85752 110.523 4.83948C111.779 4.83429 111.779 4.83429 112.548 4.62807C111.886 4.47837 111.057 4.44709 110.278 4.43345C105.597 4.27939 101.154 4.20152 97.0388 4.20143C94.9586 4.17734 93.1223 4.21108 91.618 4.30103C91.2529 4.34275 90.2952 4.30713 89.5271 4.28112C87.123 4.22421 84.8301 4.19874 82.6758 4.205C79.6991 4.22408 76.3702 4.16291 72.8184 4.02387C72.1296 3.90509 72.9031 3.92492 72.9349 3.88782C75.6628 3.85611 78.3346 3.81297 81.1186 3.79271C81.8788 3.78223 82.6934 3.7832 83.5533 3.79562C86.7694 3.87757 89.4274 3.81295 91.155 3.6108C91.2292 3.52422 92.392 3.55087 92.8958 3.50111C93.1401 3.45536 93.2986 3.39966 93.3667 3.33569C92.5923 3.1631 91.7469 3.15038 91.0961 3.14106C89.2109 3.13264 87.4001 3.14144 85.6723 3.16739C84.0664 3.19262 82.2821 3.18034 80.3678 3.13091C78.9542 3.08939 77.7543 3.10603 76.3301 3.07689C75.5551 3.04676 74.7512 3.00457 73.9345 2.95121C74.8174 2.85088 76.0314 2.79861 77.4911 2.79803C78.5895 2.74614 79.9735 2.74528 80.1218 2.57212C79.577 2.43912 78.9928 2.42888 78.5262 2.43535C77.5503 2.42117 76.6091 2.41585 75.7074 2.41943C73.7957 2.42822 71.7196 2.39956 69.5227 2.33406C68.3667 2.30487 67.2725 2.29342 66.2584 2.29987C63.957 2.29511 61.7571 2.3256 59.6504 2.32425C55.3301 2.29248 51.4024 2.34084 47.2556 2.33721C46.3329 2.33778 45.5117 2.3736 44.279 2.27458C43.0464 2.17556 42.9904 2.16412 42.8381 2.11123C42.4829 2.02158 42.3659 1.93785 42.5114 1.87744C42.7435 1.82237 43.2092 1.7964 43.8255 1.80421C47.5251 1.76334 51.0273 1.68215 54.3098 1.56111C55.761 1.54803 57.0261 1.4975 58.0609 1.41133C58.8833 1.35352 59.865 1.32138 60.975 1.31592C62.5862 1.2884 64.2684 1.27528 66.0149 1.27662C66.8273 1.27556 67.5136 1.24805 68.0335 1.19571C68.5535 1.14337 68.8965 1.06726 69.0424 0.971867L66.843 0.617384C66.5033 0.597539 66.1668 0.579769 65.8346 0.564142L48.0633 0.547725L46.3006 0.529391C44.3643 0.482903 43.8839 0.428454 41.9881 0.0269704C46.1583 -0.00268018 49.4054 -0.214139 51.4059 -0.586348C50.9021 -0.636478 50.3867 -0.680658 49.8718 -0.717854C46.5117 -0.859713 43.3461 -0.929323 40.4969 -0.923997C38.8007 -0.94326 37.0539 -0.980145 35.3016 -1.01085C35.7832 -1.18863 37.7544 -1.10597 39.0263 -1.12972C42.0709 -1.15207 44.7506 -1.24892 46.9794 -1.41718C47.7464 -1.48421 48.7138 -1.52039 49.8374 -1.52403C50.964 -1.51489 51.8981 -1.54887 52.5586 -1.623C53.2191 -1.69713 53.5858 -1.80916 53.6269 -1.94934C53.712 -2.07559 53.9213 -2.19108 54.2516 -2.29409C53.6103 -2.45582 52.608 -2.61616 51.4328 -2.74501C50.2576 -2.87386 48.9902 -2.96236 47.8685 -2.99391C45.4691 -3.09048 42.9742 -3.22846 40.4472 -3.40434C39.1883 -3.49283 37.9586 -3.55074 36.838 -3.5743C35.85 -3.5942 34.7196 -3.66122 33.6192 -3.76512C32.5189 -3.86903 31.509 -4.00412 30.7437 -4.1498C29.7132 -4.33106 28.7493 -4.51326 27.7855 -4.69545C26.8217 -4.87764 25.7004 -5.10652 24.5737 -5.32922C23.6052 -5.37518 22.6638 -5.40919 21.7624 -5.4308C21.0635 -5.43303 20.2427 -5.46711 19.397 -5.52902C18.5513 -5.59092 17.7158 -5.67808 16.9893 -5.78019V-5.78019C17.3915 -5.86521 17.8498 -5.93877 18.3292 -6.03708C17.6243 -6.18569 17.1064 -6.33441 16.8071 -6.4742C16.5078 -6.61398 16.4333 -6.7419 16.5883 -6.85014C16.673 -6.94909 15.9038 -7.12788 15.6256 -7.26457C15.2769 -7.38394 15.1973 -7.49189 15.3971 -7.57427C15.597 -7.65664 16.067 -7.70959 16.7456 -7.72618C17.5847 -7.76261 18.262 -7.8257 18.7499 -7.91285C18.9123 -7.93498 18.9916 -7.96729 18.9803 -8.00683C18.969 -8.04637 18.8676 -8.09187 18.6854 -8.13919C18.5031 -8.18651 18.2458 -8.23413 17.9369 -8.27769C17.6281 -8.32125 17.2777 -8.35937 16.9176 -8.38855C15.8155 -8.47242 14.7249 -8.53206 13.7084 -8.56406C11.9569 -8.62126 10.2819 -8.66525 8.68347 -8.69606C6.91514 -8.73346 4.93729 -8.83887 2.95078 -9.00158C1.17114 -9.15412 -0.4244 -9.29089 -1.32465 -9.54729C-2.2249 -9.80369 -3.59838 -9.81521 -4.68492 -10.0079C-4.11762 -10.1599 -3.08056 -10.2565 -1.67846 -10.2879C-0.758458 -10.2932 0.00412972 -10.3304 0.560319 -10.3971C1.11651 -10.4637 1.45403 -10.5583 1.55128 -10.6749L-1.74014 -11.2159C-4.34185 -11.4854 -5.73023 -11.3256 -8.5151 -11.4581L-5.69188 -11.6011C-5.63755 -11.6184 -5.61961 -11.6394 -5.63892 -11.663C-5.97721 -12.0372 -6.4311 -12.1225 -9.382 -12.3688L-11.0388 -12.5109L-13.6534 -12.6885C-14.0809 -12.7702 -14.381 -12.8534 -14.5237 -12.9297C-14.6665 -13.006 -14.6468 -13.0728 -14.4667 -13.1233C-14.1019 -13.2075 -14.0053 -13.3202 -14.186 -13.4511C-14.4514 -13.5399 -14.4851 -13.6187 -14.2814 -13.674C-14.0776 -13.7293 -13.6492 -13.7575 -13.0705 -13.7538C-12.6091 -13.754 -12.5911 -13.8521 -12.3487 -13.9043C-12.1115 -13.9777 -11.6934 -14.0307 -11.1229 -14.0597C-10.5525 -14.0887 -9.84322 -14.093 -9.04311 -14.0724C-6.68751 -14.0316 -4.4806 -14.0294 -2.46158 -14.0658L-2.82977 -14.0974C-0.704714 -14.0107 1.27433 -13.976 3.01096 -13.995C4.74949 -14.0253 6.99804 -13.9587 8.84871 -13.966C10.3611 -13.9371 11.499 -13.9967 12.0211 -14.1322C12.5269 -14.2614 14.4527 -14.2026 15.9277 -14.1558C16.8017 -14.1267 17.6448 -14.1077 18.4481 -14.099C19.5219 -14.1148 20.8757 -14.0667 22.2838 -13.9628C22.7064 -13.931 23.1207 -13.9115 23.4868 -13.9061C27.0368 -13.8209 30.5813 -13.7295 34.0805 -13.6619C34.8857 -13.6612 35.836 -13.6235 36.8198 -13.5532C37.2335 -13.5229 37.6338 -13.5071 37.9669 -13.508C43.4819 -13.4867 49.7393 -13.2557 55.1421 -13.2572C55.7955 -13.2663 56.5216 -13.2599 57.2997 -13.2382C59.0519 -13.1682 60.5621 -13.1762 61.601 -13.2612C62.1617 -13.3063 62.8869 -13.3253 63.7304 -13.317C64.5739 -13.3087 65.5172 -13.2733 66.5001 -13.213C68.1331 -13.1285 69.6341 -13.1008 70.8446 -13.1327C73.2131 -13.1446 75.7088 -13.1281 78.3118 -13.0834C79.1103 -13.0643 79.8081 -13.0721 80.3513 -13.1061C80.8945 -13.1401 81.2683 -13.1995 81.4439 -13.2796C80.7816 -13.4293 80.0802 -13.4563 79.4189 -13.4532C76.8424 -13.5214 74.2712 -13.5957 71.7455 -13.6463C69.4799 -13.7212 67.3108 -13.7648 65.2699 -13.7765C64.2583 -13.7716 62.9848 -13.833 61.7274 -13.9474C60.1857 -14.0915 58.6087 -14.1745 57.3152 -14.1796C56.3551 -14.1898 55.3393 -14.2146 54.2826 -14.2536C53.6041 -14.2923 52.9051 -14.3522 52.2576 -14.4272C52.0003 -14.4594 51.7213 -14.4874 51.4386 -14.5093C51.156 -14.5313 50.876 -14.5467 50.6162 -14.5546C50.3564 -14.5625 50.1225 -14.5627 49.9298 -14.5552C49.7372 -14.5477 49.5898 -14.5327 49.4971 -14.5111C48.5542 -14.3331 46.3586 -14.4615 44.4889 -14.5089C41.6386 -14.8727 39.589 -14.7099 36.945 -14.9299C36.7363 -14.9449 36.5313 -14.9552 36.3429 -14.9599C36.1544 -14.9646 35.9863 -14.9638 35.8487 -14.9575C30.8088 -14.9182 24.8983 -15.0929 19.594 -15.1293C19.0092 -15.132 18.3262 -15.1606 17.6228 -15.212C13.0246 -15.5512 8.63441 -15.6908 5.31065 -15.6035C4.90553 -15.5972 4.44249 -15.6032 3.94256 -15.6212C1.63681 -15.7628 -0.558089 -15.8371 -2.45892 -15.838C-5.44596 -15.8883 -8.31554 -15.9218 -11.3534 -15.9897C-13.4505 -16.0551 -15.2787 -16.0424 -16.6547 -15.9529C-16.6918 -15.9096 -17.6282 -15.97 -18.3403 -15.9845C-18.7677 -16.1008 -19.1389 -16.2057 -19.5769 -16.3096C-19.974 -16.4361 -20.5591 -16.5668 -21.2923 -16.6926C-22.0256 -16.8185 -22.8898 -16.9366 -23.8267 -17.039C-25.4222 -17.1758 -25.6074 -17.3443 -24.5143 -17.39C-21.7043 -17.5526 -18.1425 -17.5852 -14.0906 -17.4856C-10.7089 -17.4347 -7.26571 -17.3786 -3.83321 -17.31C-1.83021 -17.2645 0.284753 -17.196 2.23168 -17.1619C2.89074 -17.1378 3.56884 -17.1063 4.25901 -17.0678C5.10689 -17.0142 5.92715 -16.9799 6.67571 -16.9669C9.07203 -16.9684 11.7579 -16.9 14.6052 -16.7651C15.6458 -16.7298 16.6428 -16.7088 17.5816 -16.7025C19.8008 -16.6971 22.2145 -16.6443 24.7586 -16.5454C26.3394 -16.4875 27.8694 -16.4474 29.333 -16.4254C29.8504 -16.4143 30.2662 -16.4384 30.7678 -16.4087C35.1884 -16.1094 38.2623 -16.2376 42.2206 -16.0908C44.1414 -16.0384 45.9723 -16.0126 47.6879 -16.0138C51.0443 -15.9654 54.4983 -15.8909 58.0362 -15.7906C62.7172 -15.6416 67.0374 -15.6098 71.4995 -15.5128C72.3805 -15.4932 73.2298 -15.4825 74.0412 -15.4808C77.9853 -15.4894 82.283 -15.4155 86.8295 -15.2609C87.8606 -15.2333 88.782 -15.2364 89.5362 -15.27C90.2904 -15.3036 90.861 -15.3669 91.2123 -15.4561C91.3568 -15.5187 91.2424 -15.6041 90.8909 -15.6961C90.3132 -15.8153 89.6636 -15.9333 88.9528 -16.0481L63.6704 -16.7548C62.6079 -16.7881 61.5731 -16.8125 60.5713 -16.8279C57.6249 -16.8724 54.5837 -16.9424 51.4631 -17.0378C48.3798 -17.1295 45.4434 -17.1621 42.4617 -17.2185C41.5833 -17.2358 40.6806 -17.2599 39.7573 -17.291C33.5128 -17.5221 27.4324 -17.6951 21.5589 -17.8087C19.0893 -17.8478 16.4112 -17.9513 13.8908 -18.008C11.3704 -18.0647 7.9273 -18.1209 4.94025 -18.1711L-4.30332 -18.2996C-6.12221 -18.3294 -7.89037 -18.3416 -9.65319 -18.3599C-11.8696 -18.8486 -12.625 -18.9665 -15.5145 -19.2075C-16.5039 -19.2954 -17.5052 -19.3535 -18.4009 -19.3753C-21.2303 -19.3788 -24.813 -19.5797 -27.4985 -19.5975C-29.1226 -19.6301 -30.4909 -19.5985 -31.4633 -19.5058C-32.3089 -19.4343 -33.2808 -19.3819 -34.3638 -19.3495C-37.4172 -19.7838 -37.7227 -20.0424 -35.4911 -20.11C-34.8858 -20.1245 -34.0457 -20.1056 -33.614 -20.1482C-33.3665 -20.1744 -33.0246 -20.1866 -32.6154 -20.1838C-32.2062 -20.181 -31.7411 -20.1632 -31.2566 -20.132C-29.7295 -20.0465 -28.3056 -20.0115 -27.1278 -20.0304C-26.0216 -20.0617 -24.6558 -20.0407 -23.162 -19.9692C-22.0574 -19.8746 -21.1166 -19.9732 -20.178 -19.9923C-19.2395 -20.0114 -18.4745 -20.0587 -16.9858 -19.951C-16.7129 -19.9299 -16.4432 -19.9157 -16.1972 -19.9096C-15.9513 -19.9035 -15.7356 -19.9055 -15.5668 -19.9157C-13.9927 -19.9494 -12.1021 -19.917 -10.0488 -19.821C-6.9056 -19.7108 -3.96638 -19.6671 -1.33311 -19.6913C0.240393 -19.7228 1.57383 -19.7991 2.61499 -19.9172C2.89743 -19.9576 3.3233 -19.9782 3.85194 -19.9771C6.51618 -19.912 9.42136 -19.767 12.3801 -19.5514C13.4955 -19.466 14.6069 -19.3953 15.6908 -19.3407C17.9196 -19.2218 20.0694 -19.1426 22.0764 -19.1053C24.9909 -19.0629 28.0307 -18.9866 31.1687 -18.8769C33.1047 -18.8132 34.9665 -18.7736 36.7321 -18.7585C38.5478 -18.7376 40.4918 -18.6824 42.5201 -18.5943C44.5353 -18.5174 46.2996 -18.5206 47.6001 -18.6036C48.0248 -18.6522 48.3635 -18.7123 48.6097 -18.7826C45.631 -19.0646 42.5713 -19.2296 40.0466 -19.2444C39.0837 -19.2739 38.2891 -19.269 37.2617 -19.3769L37.2352 -19.346C37.0372 -19.3285 36.7343 -19.328 36.384 -19.3445C36.0338 -19.3611 35.6608 -19.3936 35.336 -19.4358V-19.4358C35.4367 -19.5533 35.532 -19.6646 35.6008 -19.745C37.5294 -19.7036 39.3995 -19.6785 41.2015 -19.6699C42.7189 -19.6726 44.819 -19.4328 46.1227 -19.4937C48.7075 -19.3584 50.3202 -19.4724 52.63 -19.4005C54.9399 -19.3287 57.4983 -19.1625 59.8081 -19.0906C61.8216 -19.0407 63.7739 -19.0086 65.6542 -18.9944C66.301 -19.0026 67.0507 -18.988 67.8571 -18.9517C68.9928 -18.8886 70.0431 -18.866 70.8877 -18.8863C71.7323 -18.9067 72.3369 -18.9692 72.6325 -19.0668C72.3225 -19.1663 71.9059 -19.295 71.4277 -19.4289C72.2512 -19.5219 73.5209 -19.5481 75.0485 -19.5036L77.2008 -19.4784C77.7719 -19.4676 78.2033 -19.4898 78.406 -19.5404C78.6087 -19.591 78.5672 -19.6661 78.2899 -19.7502C74.1403 -20.2121 73.9826 -20.2588 71.0292 -20.0406L67.0307 -20.2174L67.0974 -20.2183ZM121.094 -18.3514L120.787 -18.3777L121.094 -18.3514ZM624.016 31.6549L623.958 31.723L624.021 31.6488L624.696 31.7066L624.734 31.6633L624.016 31.6549ZM522.171 0.0494611C521.215 -0.039058 520.252 -0.121637 519.286 -0.197769C519.035 -0.211004 518.8 -0.21649 518.603 -0.213755C518.406 -0.21102 518.251 -0.200151 518.153 -0.182066C518.089 -0.107854 518.631 -0.0481364 519.122 -0.00605473C519.742 0.0500054 520.372 0.0889455 520.947 0.106752C521.522 0.124558 522.022 0.12059 522.395 0.0952432L522.939 0.0754752L522.171 0.0494611ZM39.6049 11.5791C40.2277 11.6005 40.8167 11.6108 41.3573 11.6098C43.7518 11.5827 46.0394 11.5266 48.4953 11.5047C51.5821 11.4051 55.1468 11.397 59.0555 11.4806C60.583 11.516 61.8638 11.4877 62.7485 11.3988C63.2792 11.3519 63.9704 11.3299 64.7801 11.334L75.0735 11.3135C75.7058 11.2881 76.2494 11.2478 76.6916 11.1933C75.7711 11.1144 75.1574 11.0618 74.7892 11.0302C74.0331 11.0122 73.3876 11.0233 72.9174 11.0623C72.417 11.1326 71.5546 11.1511 70.5015 11.1141C69.4391 11.0808 68.4043 11.0564 67.4025 11.041C65.5116 11.0183 63.61 11.008 61.7139 10.9915C61.0111 11.1968 58.8156 11.0683 56.9459 11.0209L55.5058 11.0103C50.8117 11.056 46.3356 11.1466 42.0991 11.2818C41.2796 11.3032 40.5775 11.3458 40.0146 11.4084C39.8072 11.4605 39.7492 11.5283 39.8451 11.6063L39.5384 11.58L39.6049 11.5791ZM253.458 35.1542C254.603 35.185 255.799 35.2319 257.027 35.2942C257.974 35.3536 258.896 35.3945 259.756 35.4153C264.57 35.5311 269.597 35.7131 274.77 35.9588C275.447 35.9945 276.095 36.0164 276.69 36.0238L280.893 36.0389C282.216 36.0327 282.237 36.008 281.216 35.6616C280.404 35.5858 279.584 35.5155 278.761 35.4512C278.27 35.4091 277.473 35.3408 277.297 35.3921C276.197 35.5234 274.129 35.3993 272.398 35.3439C267.389 35.1933 262.217 35.0023 257.157 34.8341C256.087 34.7953 255.052 34.7688 254.063 34.7547C253.449 34.7411 252.891 34.7427 252.413 34.7593C252.272 34.7597 252.155 34.765 252.07 34.7749C251.985 34.7847 251.933 34.7989 251.918 34.8164C251.903 34.834 251.925 34.8545 251.983 34.8767C252.041 34.8988 252.133 34.922 252.254 34.9448C252.679 35.0247 253.167 35.1024 253.703 35.1753L253.458 35.1542ZM282.066 -12.6387L286.981 -12.6091C287.57 -12.605 288.064 -12.6424 288.698 -12.6146C292.078 -12.507 295.196 -12.48 297.918 -12.5346C298.844 -12.5595 299.933 -12.5517 301.126 -12.5119C304.778 -12.392 308.213 -12.3409 311.338 -12.3601C313.362 -12.3443 315.251 -12.3603 316.978 -12.4077C317.109 -12.4225 317.189 -12.444 317.211 -12.4707C317.234 -12.4974 317.2 -12.5286 317.11 -12.5623C317.085 -12.5832 317.022 -12.6061 316.925 -12.6296C316.828 -12.653 316.7 -12.6764 316.55 -12.6982C316.399 -12.7199 316.23 -12.7394 316.054 -12.7554C315.877 -12.7715 315.697 -12.7836 315.527 -12.7909C313.315 -12.919 311.225 -12.9822 309.427 -12.9753C307.762 -12.9601 305.964 -12.9741 304.062 -13.017C302.243 -13.0468 301.03 -12.9383 298.768 -13.0658C297.812 -13.1108 296.976 -13.1121 296.4 -13.0697C295.237 -13.0022 293.596 -13.0206 291.767 -13.1215C290.675 -13.175 289.634 -13.206 288.684 -13.2132C286.383 -13.218 284.188 -13.1937 282.06 -13.1703C281.389 -13.1674 280.668 -13.1758 279.908 -13.1955L269.192 -13.4502C266.615 -13.5184 264.044 -13.5927 261.518 -13.6433C259.449 -13.7051 257.531 -13.7218 255.83 -13.6927C254.016 -13.6626 252.032 -13.6679 249.915 -13.7085C246.635 -13.7242 243.37 -13.7584 239.794 -13.8127C237.514 -13.8422 235.177 -13.8831 232.79 -13.9417C231.579 -13.9909 230.56 -13.979 229.929 -13.9081C229.548 -13.8478 228.617 -13.9144 227.849 -13.9404C223.741 -14.1449 219.905 -14.2335 216.61 -14.2001C216.189 -14.193 215.726 -14.1948 215.231 -14.2055C212.044 -14.2529 208.739 -14.3171 205.68 -14.3603C204.876 -14.3654 204.121 -14.359 203.424 -14.3412C203.507 -14.2951 203.729 -14.2432 204.045 -14.1964C204.36 -14.1496 204.745 -14.1114 205.119 -14.0897C208.033 -13.9232 210.838 -13.8175 213.415 -13.777C217.701 -13.7328 222.199 -13.6337 226.862 -13.4806C230.484 -13.3415 233.771 -13.3139 236.476 -13.4C238.592 -13.4629 241.37 -13.389 244.334 -13.1912C245.603 -13.0987 246.828 -13.0517 247.841 -13.0565C248.815 -13.0678 249.939 -13.0459 251.146 -12.9923C253.689 -12.8868 256.13 -12.8201 258.419 -12.7937C260.654 -12.788 262.731 -12.829 265.027 -12.8181C267.323 -12.8071 270.828 -12.7457 273.657 -12.7422C276.487 -12.7386 279.29 -12.7041 282.066 -12.6387ZM77.5307 -19.1713C77.8226 -18.9737 78.7622 -18.8401 79.7599 -18.7744C83.2083 -18.4969 86.5961 -18.3518 89.3545 -18.3636C90.8374 -18.4132 92.8344 -18.3581 94.9529 -18.209C97.4174 -18.0504 99.7049 -17.9977 101.413 -18.0602C101.832 -18.0694 102.15 -18.0969 102.338 -18.1403C102.369 -18.1774 102.428 -18.2454 102.438 -18.2578C102.252 -18.2921 102.025 -18.3247 101.775 -18.353C101.526 -18.3814 101.259 -18.4046 100.997 -18.4211L89.664 -18.8017L87.6873 -18.8782C84.0706 -19.0567 80.6359 -19.1558 77.5307 -19.1713V-19.1713ZM100.259 -15.7893C102.074 -15.4478 102.079 -15.454 102.994 -15.3689C107.402 -15.007 111.783 -14.7835 115.617 -14.725C116.469 -14.714 117.187 -14.7344 117.71 -14.7846C117.983 -14.7885 118.154 -14.8109 118.185 -14.8468C118.215 -14.8827 118.104 -14.9293 117.875 -14.9763L116.436 -15.2191C113.874 -15.3515 111.351 -15.4635 108.884 -15.5544C106.012 -15.6613 103.475 -15.6994 100.504 -15.7682L100.259 -15.7893ZM253.014 33.7488C254.729 34.2077 254.735 34.2016 257.504 34.3526C259.433 34.4592 261.3 34.5321 263.049 34.5691C265.185 34.6128 267.378 34.6679 269.509 34.7178C270.031 34.739 270.469 34.7337 270.739 34.7028C271.009 34.672 271.091 34.6179 270.969 34.5509C270.678 34.4761 270.23 34.4013 269.698 34.3388C269.165 34.2763 268.58 34.2297 268.036 34.2066L266.873 34.1799C265.46 34.1384 263.99 34.0855 262.627 34.0616C261.746 34.0672 260.72 34.0389 259.629 33.9788C258.538 33.9186 257.411 33.8283 256.337 33.7149L253.014 33.7488ZM108.618 -18.1662C109.069 -18.0845 109.577 -18.0053 110.128 -17.9305C112.251 -17.7149 114.483 -17.578 116.387 -17.5467C117.288 -17.5225 118.104 -17.5522 119.03 -17.4795C120.686 -17.3764 122.285 -17.3115 123.741 -17.2881C123.741 -17.2881 124.146 -17.2998 124.279 -17.3017L124.512 -17.5738C123.813 -17.6474 123.086 -17.7097 122.364 -17.7579C119.953 -17.865 117.587 -17.9483 115.226 -18.0378C112.866 -18.1273 112.042 -18.1648 110.5 -18.2106C109.816 -18.2069 109.186 -18.192 108.618 -18.1662ZM62.3356 15.4194L65.5688 16.0285C66.5929 16.0918 67.5435 16.1141 68.276 16.0918C69.0085 16.0695 69.4827 16.0039 69.6266 15.905C69.8773 15.8613 69.8917 15.7915 69.6664 15.7104C69.4412 15.6292 68.994 15.5429 68.4187 15.4695C67.8624 15.3844 67.2307 15.3062 66.5624 15.2398C65.8941 15.1733 65.2035 15.1201 64.5336 15.0834L62.3356 15.4194ZM88.0119 12.9735C85.9425 12.8489 83.9719 12.7822 82.2506 12.7784C81.1733 12.8192 79.698 12.7806 78.1273 12.6706C75.2682 12.4551 72.5321 12.3681 70.4963 12.4281C70.4963 12.4281 70.4326 12.5023 70.0887 12.5192C69.7448 12.5362 71.132 12.6087 71.4388 12.635C73.6714 12.7201 75.9145 12.7929 77.8509 12.8394C79.0509 12.8554 80.3233 12.891 81.6462 12.9457C83.4674 13.0268 85.1888 13.069 86.7432 13.0706C86.7432 13.0706 87.3431 13.0622 88.0066 12.9797L88.0119 12.9735ZM302.457 -13.3736C301.458 -13.4938 300.38 -13.5952 299.304 -13.6702C298.227 -13.7453 297.18 -13.792 296.241 -13.8069C295.521 -13.8225 294.943 -13.8026 294.6 -13.7502C294.257 -13.6979 294.168 -13.6161 294.346 -13.5178C295.083 -13.4547 296.065 -13.3706 296.617 -13.3232C298.508 -13.3005 300.113 -13.3289 302.457 -13.3736ZM487.55 -1.82942C486.749 -1.92612 485.871 -2.00378 485.017 -2.05353C484.163 -2.10328 483.367 -2.12311 482.719 -2.11076C482.386 -2.10614 482.629 -2.00563 482.582 -1.94997C482.547 -1.93769 482.55 -1.92176 482.59 -1.90386C482.631 -1.88595 482.709 -1.86671 482.814 -1.84818C482.919 -1.82964 483.049 -1.81249 483.189 -1.79851C483.33 -1.78453 483.476 -1.77423 483.612 -1.76871C484.472 -1.71982 485.28 -1.69752 485.963 -1.7038C486.647 -1.71008 487.185 -1.74473 487.529 -1.80468L487.55 -1.82942ZM500.055 -0.43227C499.925 -0.484525 499.657 -0.540832 499.301 -0.59089C498.944 -0.640948 498.523 -0.681395 498.115 -0.7048C497.397 -0.717246 496.748 -0.712378 496.192 -0.690372C495.587 -0.675871 496.049 -0.523388 496.887 -0.425007C497.242 -0.38526 497.619 -0.352847 497.989 -0.330341C498.358 -0.307834 498.711 -0.295859 499.017 -0.295362C499.324 -0.294865 499.576 -0.305868 499.754 -0.327487C499.933 -0.349105 500.032 -0.380749 500.044 -0.419901L500.055 -0.43227ZM140.643 -17.1802C138.778 -17.3866 137.373 -17.361 135.807 -17.4554C134.241 -17.5498 133.857 -17.5628 134.084 -17.4437C134.311 -17.3247 135.373 -17.3332 136.048 -17.2754C136.96 -17.1984 137.872 -17.1487 138.684 -17.1319C139.495 -17.1151 140.174 -17.1318 140.643 -17.1802V-17.1802ZM528.162 18.7453C527.183 18.6911 526.226 18.6491 525.305 18.6199C525.187 18.635 525.115 18.6559 525.093 18.6814C525.071 18.7069 525.1 18.7364 525.178 18.7683C525.178 18.7683 525.816 18.8695 526.184 18.901C527.539 19.0106 527.584 18.8816 528.162 18.7453V18.7453ZM668.349 37.4996C669.027 37.6308 669.347 37.718 669.884 37.7839C670.129 37.8076 670.382 37.8258 670.623 37.8373C670.864 37.8488 671.087 37.8531 671.276 37.8501C671.502 37.8182 671.547 37.7653 671.403 37.7017C671.403 37.7017 670.715 37.5829 670.459 37.5742C669.726 37.5382 669.018 37.5131 668.349 37.4996V37.4996ZM109.231 -18.6514C107.819 -18.7723 106.469 -18.8881 105.523 -18.7833C107.759 -18.6248 107.759 -18.6248 109.231 -18.6514ZM132.011 -17.1767C130.567 -17.4133 129.737 -17.4446 129.065 -17.4291C128.922 -17.4249 128.83 -17.4122 128.801 -17.3931C128.772 -17.374 128.809 -17.3494 128.905 -17.3231C129.002 -17.2969 129.153 -17.2703 129.336 -17.2475C129.519 -17.2246 129.724 -17.2067 129.92 -17.1966C130.655 -17.18 131.355 -17.1733 132.011 -17.1767V-17.1767ZM204.507 -16.0673C204.534 -16.0982 204.566 -16.1353 204.197 -16.1669C204.1 -16.1816 203.986 -16.1948 203.868 -16.2049C203.749 -16.2151 203.63 -16.2219 203.522 -16.2247C203.522 -16.2247 203.491 -16.1876 203.469 -16.1629L204.507 -16.0673ZM263.451 36.7145L262.646 36.7318L263.014 36.7634L263.977 36.7928L263.451 36.7145ZM541.865 -0.333554C541.558 -0.359855 541.251 -0.38616 541.214 -0.342869C541.151 -0.336965 541.113 -0.327704 541.103 -0.31587C541.093 -0.304036 541.111 -0.289972 541.156 -0.274841C541.156 -0.274841 541.585 -0.238016 541.769 -0.222236L541.865 -0.333554ZM494.704 -0.645304C494.504 -0.650624 494.325 -0.650206 494.176 -0.644089C494.176 -0.644089 494.145 -0.606983 494.145 -0.606983L494.758 -0.554377L494.704 -0.645304ZM84.6898 2.54546C84.4518 2.5193 84.2006 2.49777 83.9534 2.48234L83.6465 2.45603C83.6465 2.45603 83.9829 2.5247 84.167 2.54048C84.3511 2.55626 84.4951 2.54205 84.6898 2.54546Z" fill="#64F164"/>
</svg>
