<svg width="22" height="23" viewBox="0 0 22 23" fill="none" xmlns="http://www.w3.org/2000/svg">
<path d="M6.468 1.74727L5.06 0L0 4.39672L1.419 6.14399L6.468 1.74727ZM22 4.40814L16.94 0L15.521 1.74727L20.581 6.15541L22 4.40814ZM11 2.44389C5.533 2.44389 1.1 7.04618 1.1 12.7219C1.1 18.3977 5.522 23 11 23C16.467 23 20.9 18.3977 20.9 12.7219C20.9 7.04618 16.467 2.44389 11 2.44389ZM11 20.716C6.743 20.716 3.3 17.1415 3.3 12.7219C3.3 8.30238 6.743 4.7279 11 4.7279C15.257 4.7279 18.7 8.30238 18.7 12.7219C18.7 17.1415 15.257 20.716 11 20.716ZM12.1 8.15392H9.9V11.5799H6.6V13.864H9.9V17.29H12.1V13.864H15.4V11.5799H12.1V8.15392Z" fill="#6B7280"/>
</svg>
